<?xml version="1.0" encoding="UTF-8"?>
<svg width="52px" height="52px" viewBox="0 0 52 52" version="1.1" xmlns="http://www.w3.org/2000/svg" xmlns:xlink="http://www.w3.org/1999/xlink">
    <!-- Generator: Sketch 53.2 (72643) - https://sketchapp.com -->
    <title>больничка</title>
    <desc>Created with Sketch.</desc>
    <g id="Page-1" stroke="none" stroke-width="1" fill="none" fill-rule="evenodd">
        <g id="Icons" transform="translate(-164.000000, -601.000000)" stroke="#814C9E" stroke-width="2">
            <g id="больничка" transform="translate(164.000000, 601.000000)">
                <circle id="Oval-3" stroke-opacity="0.2" fill="#FFFFFF" cx="26" cy="26" r="25"></circle>
                <path d="M22.9999883,36 L29.0000117,36 C29.551967,36 29.9999766,35.5519904 29.9999766,35.0000352 L29.9999766,29.9999766 L35.0000352,29.9999766 C35.5519904,29.9999766 36,29.551967 36,29.0000117 L36,22.9999883 C36,22.448033 35.5519904,22.0000234 35.0000352,22.0000234 L29.9999766,22.0000234 L29.9999766,16.9999648 C29.9999766,16.4480096 29.551967,16 29.0000117,16 L22.9999883,16 C22.448033,16 22.0000234,16.4480096 22.0000234,16.9999648 L22.0000234,22.0000234 L16.9999648,22.0000234 C16.4480096,22.0000234 16,22.448033 16,22.9999883 L16,29.0000117 C16,29.551967 16.4480096,29.9999766 16.9999648,29.9999766 L22.0000234,29.9999766 L22.0000234,35.0000352 C22.0000234,35.5519904 22.448033,36 22.9999883,36 Z" id="Shape" fill-rule="nonzero"></path>
            </g>
        </g>
    </g>
</svg>