<svg width="54" height="54" viewBox="0 0 54 54" fill="none" xmlns="http://www.w3.org/2000/svg">
<path opacity="0.2" fill-rule="evenodd" clip-rule="evenodd" d="M27 53C41.3594 53 53 41.3594 53 27C53 12.6406 41.3594 1 27 1C12.6406 1 1 12.6406 1 27C1 41.3594 12.6406 53 27 53Z" fill="#F5F5F5" fill-opacity="0.01" stroke="#814C9E" stroke-width="2"/>
<path d="M15 19.6667V33.8095C15 36.1143 16.8783 38 19.1739 38H34.8261C37.1217 38 39 36.1143 39 33.8095V21.2381H16.6696C15.7304 21.2381 15 20.5048 15 19.6143V19.6143V19.6143C15 18.7762 15.6261 18.0429 16.4609 17.9905L36.913 16V21.2381" stroke="#814C9E" stroke-width="2" stroke-linecap="round" stroke-linejoin="round"/>
<path fill-rule="evenodd" clip-rule="evenodd" d="M33.7826 25.9524H39V25.9524V32.2381V32.2381H33.7826C32.0609 32.2381 30.6522 30.8238 30.6522 29.0952V29.0952C30.6522 27.3667 32.0609 25.9524 33.7826 25.9524Z" stroke="#814C9E" stroke-width="2" stroke-linecap="round" stroke-linejoin="round"/>
<path fill-rule="evenodd" clip-rule="evenodd" d="M34.3043 30.1429C34.8806 30.1429 35.3478 29.6738 35.3478 29.0952C35.3478 28.5167 34.8806 28.0476 34.3043 28.0476C33.728 28.0476 33.2609 28.5167 33.2609 29.0952C33.2609 29.6738 33.728 30.1429 34.3043 30.1429Z" stroke="#814C9E" stroke-width="2" stroke-linecap="round" stroke-linejoin="round"/>
</svg>
