<?xml version="1.0" encoding="UTF-8"?>
<svg width="52px" height="52px" viewBox="0 0 52 52" version="1.1" xmlns="http://www.w3.org/2000/svg" xmlns:xlink="http://www.w3.org/1999/xlink">
    <!-- Generator: Sketch 53.1 (72631) - https://sketchapp.com -->
    <title>партнёрам</title>
    <desc>Created with Sketch.</desc>
    <g id="Page-1" stroke="none" stroke-width="1" fill="none" fill-rule="evenodd">
        <g id="Иконки(true)" transform="translate(-523.000000, -798.000000)" stroke="#814C9E">
            <g id="партнёрам" transform="translate(523.000000, 798.000000)">
                <circle id="Oval-3-Copy" stroke-opacity="0.2" stroke-width="2" cx="26" cy="26" r="25"></circle>
                <g id="Group-5" transform="translate(21.000000, 25.000000)">
                    <path d="M9.70428,0.246514286 L8.99588,5.77037143" id="Stroke-1"></path>
                    <path d="M0.29572,0.246514286 L1.00412,5.77037143" id="Stroke-3"></path>
                </g>
                <path d="M25,27.5 L27,27.5" id="Stroke-6" stroke-linecap="round" stroke-linejoin="round"></path>
                <g id="Group-19" transform="translate(20.000000, 11.000000)" stroke-linecap="round" stroke-linejoin="round">
                    <path d="M5.53328276,1.24254141 L6.50486897,1.24254141 C6.56693793,1.24254141 6.62817931,1.26056809 6.68031724,1.29452533 L7.25755862,1.66679726 C7.30348966,1.69614302 7.36224828,1.69488534 7.40693793,1.66344346 L9.06666207,0.499674452 C9.06666207,0.499674452 9.93355862,-0.175697259 10.5997655,0.499674452 L11.2295586,1.1373159 C11.2796276,1.18804214 11.3230759,1.24379909 11.3611448,1.30416751 C11.5312138,1.57708308 12.0000414,2.37822233 12.0000414,2.9311803 L12.0000414,5.23146868 C12.0000414,5.35472087 11.852731,5.41634697 11.7666621,5.32914814 L10.0370069,3.5763678 C9.82638621,3.36340143 9.4668,3.51432248 9.4668,3.81574536 L9.4668,6.6538996 C9.4668,6.69204909 9.45190345,6.72852167 9.4250069,6.75535208 L7.04155862,9.17092738 C7.01466207,9.19775779 7.00017931,9.23381115 7.00017931,9.27154141 L7.00017931,10.6235425 C7.00017931,10.7019376 7.06266207,10.7660791 7.14086897,10.7660791 L10.7292828,10.7660791 C10.8050069,10.7660791 10.8666621,10.8281244 10.8666621,10.9052618 L10.8666621,14.085923 C10.8666621,14.1223956 10.8521793,14.1576105 10.8273517,14.1840217 L8.55231724,16.5492899 C8.47038621,16.6348119 8.33673103,16.6260082 8.33342069,16.5069482 L8.30404138,15.8315765 C8.30155862,15.756116 8.24114483,15.696586 8.16666207,15.696586 L6.87066207,15.696586 C6.79493793,15.696586 6.73328276,15.7586313 6.73328276,15.8357687 L6.73328276,19.3396525 C6.73328276,19.4163707 6.79493793,19.4788353 6.87066207,19.4788353 L8.19604138,19.4788353 C8.27176552,19.4788353 8.33342069,19.4163707 8.33342069,19.3396525 L8.33342069,16.5069482" id="Stroke-7"></path>
                    <path d="M5.66702069,24.0041192 L6.00012414,24.0041192 L6.00012414,29.0021214 L7.11695172,30.1336101 C7.14881379,30.1658904 7.19226207,30.1843363 7.23736552,30.1843363 L8.50233103,30.1843363 C8.56274483,30.1843363 8.61902069,30.1516367 8.64922759,30.0988144 L9.36922759,28.8528772 C9.38950345,28.8180815 9.39984828,28.7782552 9.39984828,28.7380095 L9.39984828,24.163844 C9.39984828,24.0758067 9.32950345,24.0041192 9.2421931,24.0041192 L6.00012414,24.0041192" id="Stroke-9"></path>
                    <path d="M8.19988966,19.4788353 L10.0280276,19.4788353 C10.0896828,19.4788353 10.1438897,19.5215962 10.1592,19.5823839 L11.2230621,23.8287154 C11.2449931,23.9175911 11.1787862,24.0039515 11.0881655,24.0039515 L5.66706207,24.0039515" id="Stroke-11"></path>
                    <path d="M6.46671724,1.24254141 L5.55926897,1.24254141 C5.4554069,1.24254141 5.35361379,1.27272562 5.26588966,1.32932102 L4.8189931,1.61732869 C4.72671724,1.67685866 4.60837241,1.67434331 4.51857931,1.61145954 L2.93333793,0.499674452 C2.93333793,0.499674452 2.06644138,-0.175697259 1.40023448,0.499674452 L0.7332,1.17504616 C0.710441379,1.19810355 0.690165517,1.22325705 0.672786207,1.25050669 C0.544096552,1.45173476 -4.13793103e-05,2.33546137 -4.13793103e-05,2.9311803 L-4.13793103e-05,5.23733783 C-4.13793103e-05,5.35807467 0.144372414,5.41886232 0.228786207,5.33334039 L1.96588966,3.57343322 C2.17526897,3.3613053 2.5332,3.51180713 2.5332,3.81155311 L2.5332,6.63251912 C2.5332,6.68408381 2.55347586,6.7339716 2.58988966,6.77086341 L4.95844138,9.17050815 C4.98492414,9.19733856 4.99982069,9.23381115 4.99982069,9.27196064 L4.99982069,10.6239617 C4.99982069,10.7023568 4.93733793,10.7660791 4.85954483,10.7660791 L1.27071724,10.7660791 C1.1949931,10.7660791 1.13333793,10.8285436 1.13333793,10.9052618 L1.13333793,14.0808923 C1.13333793,14.1207187 1.14864828,14.1588682 1.17678621,14.1869562 L3.66657931,16.7098532 L3.69554483,15.8336726 C3.69802759,15.7573736 3.76009655,15.696586 3.8354069,15.696586 L5.12685517,15.696586 C5.20382069,15.696586 5.26671724,15.759889 5.26671724,15.8382841 L5.26671724,19.3392333 C5.26671724,19.4163707 5.20506207,19.4788353 5.12892414,19.4788353 L3.80437241,19.4788353 C3.72823448,19.4788353 3.66657931,19.4163707 3.66657931,19.3392333 L3.66657931,16.5744435" id="Stroke-13"></path>
                    <path d="M6.33177931,24.0041192 L6.13646897,24.0041192 C6.06115862,24.0041192 5.99991724,24.0661645 5.99991724,24.1424635 L5.99991724,28.9539105 C5.99991724,28.9849332 5.98791724,29.0146981 5.9664,29.0360786 L4.87564138,30.1411561 C4.84874483,30.168825 4.81191724,30.1843363 4.77343448,30.1843363 L3.48281379,30.1843363 C3.43150345,30.1843363 3.38391724,30.1566674 3.35784828,30.1118103 L2.64612414,28.8788692 C2.61591724,28.8268853 2.59977931,28.7677745 2.59977931,28.7078253 L2.59977931,24.1424635 C2.59977931,24.0661645 2.66102069,24.0041192 2.73674483,24.0041192 L5.99991724,24.0041192" id="Stroke-15"></path>
                    <path d="M3.86677241,19.4788353 L1.97284138,19.4788353 C1.91035862,19.4788353 1.85615172,19.5220155 1.84084138,19.5832223 L0.776151724,23.8324884 C0.754634483,23.9196872 0.8196,24.0039515 0.908151724,24.0039515 L6.33173793,24.0039515" id="Stroke-17"></path>
                </g>
            </g>
        </g>
    </g>
</svg>